<svg xmlns="http://www.w3.org/2000/svg" width="20.637" height="22.255" viewBox="0 0 20.637 22.255">
  <g id="Group_17" data-name="Group 17" transform="translate(-94.171 -233.232)">
    <path id="Path_3" data-name="Path 3" d="M110.751,235.255a2.225,2.225,0,0,0-4.431,0h-3.662a2.225,2.225,0,0,0-4.431,0H94.171v20.232h20.637V235.255Zm-2.215-1.619a1.817,1.817,0,0,1,1.8,1.619h-3.6A1.817,1.817,0,0,1,108.536,233.637Zm-8.093,0a1.817,1.817,0,0,1,1.8,1.619h-3.6A1.817,1.817,0,0,1,100.443,233.637Zm13.96,21.446H94.576V239.3H114.4ZM94.576,238.9V235.66h3.661a2.222,2.222,0,0,0,2,2.013v-.415a1.814,1.814,0,0,1-1.6-1.6h7.689a2.222,2.222,0,0,0,2,2.013v-.415a1.814,1.814,0,0,1-1.6-1.6H114.4V238.9Z" fill="#fff"/>
    <path id="Path_4" data-name="Path 4" d="M100.955,264.776h14.616V252.232h-17.4v12.544h2.784Zm0-4.825h2.088v1.93h-2.088Zm0-2.412h2.088v1.93h-2.088Zm0-2.412h2.088v1.93h-2.088Zm2.436,0h2.088v1.93h-2.088Zm2.436,0h2.088v1.93h-2.088Zm2.436,0h2.088v1.93h-2.088Zm2.436,0h2.088v1.93H110.7Zm2.088,4.342H110.7v-1.93h2.088Zm0,2.412H110.7v-1.93h2.088Zm-2.436,0h-2.088v-1.93h2.088Zm-2.436,0h-2.088v-1.93h2.088Zm-2.436,0h-2.088v-1.93h2.088Zm-2.088-4.342h2.088v1.93h-2.088Zm2.436,0h2.088v1.93h-2.088Zm2.436,0h2.088v1.93h-2.088Zm-7.308,6.933v-2.109h2.088v2.109Zm2.436,0v-2.109h2.088v2.109Zm2.436,0v-2.109h2.088v2.109Zm2.436,0v-2.109h2.088v2.109Zm2.436,0v-2.109h2.088v2.109Zm4.568,0h-2.132v-2.109h2.132Zm0-2.591h-2.132v-1.93h2.132Zm0-2.412h-2.132v-1.93h2.132Zm0-2.412h-2.132v-1.93h2.132Zm0-4.521v2.109h-2.132v-2.109Zm-2.48,0v2.109H110.7v-2.109Zm-2.436,0v2.109h-2.088v-2.109Zm-2.436,0v2.109h-2.088v-2.109Zm-2.436,0v2.109h-2.088v-2.109Zm-2.436,0v2.109h-2.088v-2.109Zm-4.568,0h2.132v2.109H98.474Zm0,2.591h2.132v1.93H98.474Zm0,2.412h2.132v1.93H98.474Zm0,2.412h2.132v1.93H98.474Zm0,4.521v-2.109h2.132v2.109Z" transform="translate(-2.381 -11.312)" fill="#fff"/>
  </g>
</svg>
