<svg xmlns="http://www.w3.org/2000/svg" width="21.204" height="22.867" viewBox="0 0 21.204 22.867">
  <g id="Group_16" data-name="Group 16" transform="translate(-87.694 -239.158)">
    <path id="Path_1" data-name="Path 1" d="M104.73,241.237a2.286,2.286,0,0,0-4.553,0H96.415a2.286,2.286,0,0,0-4.553,0H87.694v20.788h21.2V241.237Zm-2.276-1.663a1.867,1.867,0,0,1,1.85,1.663h-3.7A1.867,1.867,0,0,1,102.454,239.574Zm-8.315,0a1.867,1.867,0,0,1,1.85,1.663h-3.7A1.867,1.867,0,0,1,94.138,239.574Zm14.344,22.036H88.11V245.395h20.373ZM88.11,244.979v-3.326h3.762a2.283,2.283,0,0,0,2.059,2.068v-.426a1.864,1.864,0,0,1-1.644-1.642h7.9a2.283,2.283,0,0,0,2.059,2.068v-.426a1.864,1.864,0,0,1-1.644-1.642h7.88v3.326Z" transform="translate(0 0)" fill="#809bc9"/>
    <path id="Path_2" data-name="Path 2" d="M112.407,270.868c-1.508-.094-1.588-.148-1.588-1.171v-7a11.15,11.15,0,0,1-2.464.66v.336l.66.067c.592.054.686.081.686.768V269.7c0,1.01-.081,1.077-1.575,1.171v.377h4.281Z" transform="translate(-11.937 -13.752)" fill="#809bc9"/>
  </g>
</svg>
