<svg xmlns="http://www.w3.org/2000/svg" width="13" height="16" viewBox="0 0 13 16">
  <g id="Polygon_5" data-name="Polygon 5" transform="translate(13) rotate(90)" fill="#f8f7f8">
    <path d="M 12.42086982727051 12.49999809265137 L 3.579129457473755 12.49999809265137 C 3.028029441833496 12.49999809265137 2.538529634475708 12.21278762817383 2.269699573516846 11.73170757293701 C 2.000869512557983 11.25061798095703 2.01280951499939 10.68319797515869 2.301639556884766 10.21385765075684 L 6.722509384155273 3.029937744140625 C 6.997579574584961 2.582947731018066 7.475149631500244 2.31608772277832 7.999999523162842 2.31608772277832 C 8.524849891662598 2.31608772277832 9.002419471740723 2.582947731018066 9.27748966217041 3.029937744140625 L 13.69835948944092 10.21385765075684 C 13.98718929290771 10.68319797515869 13.99912929534912 11.25061798095703 13.730299949646 11.73170757293701 C 13.46146965026855 12.21278762817383 12.97196960449219 12.49999809265137 12.42086982727051 12.49999809265137 Z" stroke="none"/>
    <path d="M 7.999999523162842 2.81608772277832 C 7.831979751586914 2.81608772277832 7.412659645080566 2.862458229064941 7.14833927154541 3.291987419128418 L 2.727469444274902 10.47590827941895 C 2.449929237365723 10.92691802978516 2.620119094848633 11.33379745483398 2.706179618835449 11.48779773712158 C 2.792229652404785 11.64180755615234 3.049559593200684 11.99999809265137 3.579129219055176 11.99999809265137 L 12.42086982727051 11.99999809265137 C 12.950439453125 11.99999809265137 13.2077693939209 11.64180755615234 13.29381942749023 11.48779773712158 C 13.37987899780273 11.33379745483398 13.55006980895996 10.92691802978516 13.27252960205078 10.47590827941895 L 8.851659774780273 3.291987419128418 C 8.587339401245117 2.862458229064941 8.168009757995605 2.81608772277832 7.999999523162842 2.81608772277832 M 7.999999523162842 1.816084861755371 C 8.656416893005371 1.816084861755371 9.312834739685059 2.133353233337402 9.703319549560547 2.767888069152832 L 14.12418937683105 9.951807975769043 C 14.94421005249023 11.28434753417969 13.98550987243652 12.99999809265137 12.42086982727051 12.99999809265137 L 3.579129219055176 12.99999809265137 C 2.01448917388916 12.99999809265137 1.055789947509766 11.28434753417969 1.875809669494629 9.951807975769043 L 6.296679496765137 2.767888069152832 C 6.687164306640625 2.133353233337402 7.343582153320312 1.816084861755371 7.999999523162842 1.816084861755371 Z" stroke="none" fill="#bdc6d5"/>
  </g>
</svg>
